<svg width="194" height="194" viewBox="0 0 194 194" fill="none" xmlns="http://www.w3.org/2000/svg">
<rect width="194" height="194" rx="20" fill="white"/>
<g clip-path="url(#clip0_3090_1743)">
<path d="M138.59 43.59V33.21C138.59 31.44 140.03 30 141.8 30H148.97C150.74 30 152.18 31.44 152.18 33.21V40.38C152.18 42.15 150.74 43.59 148.97 43.59H138.59Z" fill="#FF0000"/>
<path d="M138.59 67.73V57.35C138.59 55.58 140.03 54.14 141.8 54.14H148.97C150.74 54.14 152.18 55.58 152.18 57.35V64.52C152.18 66.29 150.74 67.73 148.97 67.73H138.59Z" fill="#FF0000"/>
<path d="M55.59 43.59H45.2C43.43 43.59 42 42.16 42 40.39V33.2C42 31.43 43.43 30 45.2 30H52.38C54.15 30 55.58 31.43 55.58 33.2V43.59H55.59Z" fill="#FF0000"/>
<path d="M55.59 67.73H45.2C43.43 67.73 42 66.3 42 64.53V57.35C42 55.58 43.43 54.15 45.2 54.15H52.38C54.15 54.15 55.58 55.58 55.58 57.35V67.73H55.59Z" fill="#FF0000"/>
<path d="M55.59 161.12C55.59 162.88 54.15 164.32 52.39 164.32H45.2C43.44 164.32 42 162.88 42 161.12V153.18C42 151.83 43.09 150.73 44.45 150.73H55.59V161.11V161.12Z" fill="#FF0000"/>
<path d="M55.59 136.97C55.59 138.73 54.15 140.17 52.39 140.17H45.2C43.44 140.17 42 138.73 42 136.97V129.03C42 127.68 43.09 126.58 44.45 126.58H55.59V136.96V136.97Z" fill="#FF0000"/>
<path d="M138.59 150.74H148.97C150.74 150.74 152.18 152.18 152.18 153.95V160.37C152.18 162.55 150.4 164.33 148.22 164.33H142.56C140.38 164.33 138.6 162.55 138.6 160.37V150.75L138.59 150.74Z" fill="#FF0000"/>
<path d="M138.59 126.59H148.97C150.74 126.59 152.18 128.03 152.18 129.8V136.22C152.18 138.4 150.4 140.18 148.22 140.18H142.56C140.38 140.18 138.6 138.4 138.6 136.22V126.6L138.59 126.59Z" fill="#FF0000"/>
<path d="M105.39 92.32V77.8499L114 69.24H129.53V53.7099L138.14 45.1H153.67V30.76C153.67 29.51 152.65 28.5 151.41 28.5H139.34C138.09 28.5 137.08 29.52 137.08 30.76V44.03L128.47 52.6399H112.94V68.1699L104.33 76.7799H89.86L81.25 68.1699V52.6399H65.72L57.11 44.03V30.76C57.11 29.51 56.09 28.5 54.85 28.5H42.76C41.51 28.49 40.49 29.51 40.49 30.76V45.1H56.02L64.63 53.7099V69.24H80.16L88.77 77.8499V92.32L85 96.09L81.23 92.32V76.79H65.7L57.09 68.18V52.65H40.49V66.99C40.49 68.24 41.51 69.25 42.75 69.25H56.02L64.63 77.86V93.39H80.16L83.93 97.16L80.16 100.93H64.63V116.46L56.02 125.07H42.76C41.51 125.07 40.5 126.09 40.5 127.33V141.67H57.09V126.14L65.7 117.53H81.23V102L85 98.23L88.77 102V116.47L80.16 125.08H64.63V140.61L56.02 149.22H40.49V163.56C40.49 164.81 41.51 165.82 42.75 165.82H54.83C56.08 165.82 57.09 164.8 57.09 163.56V150.29L65.7 141.68H81.23V126.15L89.84 117.54H104.31L112.92 126.15V141.68H128.45L137.06 150.29V163.56C137.06 164.81 138.08 165.82 139.32 165.82H151.39C152.64 165.82 153.65 164.8 153.65 163.56V149.22H138.12L129.51 140.61V125.08H113.98L105.37 116.47V102L109.14 98.23L112.91 102V117.53H128.44L137.05 126.14V141.67H153.65V127.33C153.65 126.08 152.63 125.07 151.39 125.07H138.12L129.51 116.46V100.93H113.98L110.21 97.16L113.98 93.39H129.51V77.86L138.12 69.25H151.39C152.64 69.25 153.65 68.23 153.65 66.99V52.65H137.05V68.18L128.44 76.79H112.91V92.32L109.14 96.09L105.37 92.32H105.39Z" stroke="black" stroke-width="0.99" stroke-miterlimit="10"/>
<path d="M79.73 78.2999H66.15V91.8799H79.73V78.2999Z" stroke="black" stroke-width="0.99" stroke-miterlimit="10"/>
<path d="M79.73 102.44H66.15V116.02H79.73V102.44Z" stroke="black" stroke-width="0.99" stroke-miterlimit="10"/>
<path d="M128.02 102.44H114.44V116.02H128.02V102.44Z" stroke="black" stroke-width="0.99" stroke-miterlimit="10"/>
<path d="M128.02 78.2999H114.44V91.8799H128.02V78.2999Z" stroke="black" stroke-width="0.99" stroke-miterlimit="10"/>
<path d="M128.02 54.1499H114.44V67.7299H128.02V54.1499Z" stroke="black" stroke-width="0.99" stroke-miterlimit="10"/>
<path d="M103.88 78.2999H90.3V91.8799H103.88V78.2999Z" stroke="black" stroke-width="0.99" stroke-miterlimit="10"/>
<path d="M79.73 54.1499H66.15V67.7299H79.73V54.1499Z" stroke="black" stroke-width="0.99" stroke-miterlimit="10"/>
<path d="M79.73 126.59H66.15V140.17H79.73V126.59Z" stroke="black" stroke-width="0.99" stroke-miterlimit="10"/>
<path d="M103.88 102.44H90.3V116.02H103.88V102.44Z" stroke="black" stroke-width="0.99" stroke-miterlimit="10"/>
<path d="M128.02 126.59H114.44V140.17H128.02V126.59Z" stroke="black" stroke-width="0.99" stroke-miterlimit="10"/>
<path d="M104.32 100.93H89.8501L86.0801 97.1599L89.8501 93.3899H104.32L108.09 97.1599L104.32 100.93Z" stroke="black" stroke-width="0.99" stroke-miterlimit="10"/>
</g>
<defs>
<clipPath id="clip0_3090_1743">
<rect width="114.18" height="138.32" fill="white" transform="translate(40 28)"/>
</clipPath>
</defs>
</svg>
